<?xml version="1.0" encoding="utf-8"?><!-- Uploaded to: SVG Repo, www.svgrepo.com, Generator: SVG Repo Mixer Tools -->
<svg fill="#000000" width="800px" height="800px" viewBox="0 0 24 24" id="information-chat-right" data-name="Flat Color" xmlns="http://www.w3.org/2000/svg" class="icon flat-color"><path id="primary" d="M4.92,4.93a10,10,0,0,1,8.69-2.8h0a10.07,10.07,0,0,1,8.22,8,10,10,0,0,1-.78,6.11l.63,3.06a2,2,0,0,1-.55,1.82,2,2,0,0,1-1.82.54l-3.06-.62A10,10,0,0,1,12,22a9.62,9.62,0,0,1-1.84-.17A10,10,0,0,1,4.92,4.93Z" style="fill: rgb(0, 0, 0);"></path><path id="secondary" d="M11,16V12a1,1,0,0,1,2,0v4a1,1,0,0,1-2,0Zm-.5-8A1.5,1.5,0,1,0,12,6.5,1.5,1.5,0,0,0,10.5,8Z" style="fill: rgb(44, 169, 188);"></path></svg>